<svg xmlns="http://www.w3.org/2000/svg" version="1.0" width="625.000000pt" height="625.000000pt" viewBox="0 0 625.000000 625.000000" preserveAspectRatio="xMidYMid meet">

<g transform="translate(0.000000,625.000000) scale(0.100000,-0.100000)" fill="" stroke="none">
<path d="M2860 5255 c-195 -22 -210 -25 -355 -67 -118 -35 -296 -104 -365 -142 -19 -10 -60 -33 -90 -49 -55 -30 -210 -134 -220 -147 -3 -3 -26 -21 -52 -38 -25 -17 -48 -35 -50 -39 -1 -5 -33 -34 -71 -67 -126 -110 -290 -317 -387 -491 -42 -74 -100 -188 -100 -196 0 -7 -45 -111 -57 -131 -2 -5 872 -8 1943 -8 l1946 0 -6 34 c-9 46 -90 215 -152 316 -18 30 -36 62 -40 70 -30 65 -223 298 -319 386 -235 214 -455 352 -710 446 -205 75 -307 99 -535 123 -156 17 -221 17 -380 0z" fill ='#FC3A38'/>
<path d="M635 3700 c-111 -22 -240 -98 -297 -172 -77 -101 -103 -203 -96 -369 5 -97 9 -117 37 -172 43 -87 126 -176 196 -211 102 -50 151 -60 280 -60 102 0 129 4 180 24 124 48 226 137 279 245 69 142 65 320 -12 472 -55 106 -183 202 -322 238 -59 16 -179 18 -245 5z m225 -70 c106 -68 161 -211 161 -419 0 -166 -40 -295 -118 -382 -51 -56 -84 -71 -159 -70 -111 1 -168 50 -231 201 -21 53 -28 86 -32 180 -12 230 13 346 91 435 53 60 105 84 182 85 49 0 67 -5 106 -30z"/>
<path d="M3670 3703 c-188 -31 -339 -156 -390 -321 -25 -81 -27 -250 -5 -337 25 -94 114 -210 200 -261 113 -66 298 -92 423 -60 188 48 334 190 372 362 28 121 10 257 -48 371 -55 106 -183 202 -322 238 -51 14 -172 18 -230 8z m210 -73 c106 -68 161 -211 161 -419 0 -166 -40 -295 -118 -382 -51 -56 -84 -71 -159 -70 -111 1 -168 50 -231 201 -21 53 -28 86 -32 180 -12 230 13 346 91 435 53 60 105 84 182 85 49 0 67 -5 106 -30z"/>
<path d="M4462 3693 c-51 -2 -92 -8 -90 -13 2 -4 25 -23 52 -42 78 -52 78 -54 73 -466 -4 -397 0 -377 -81 -405 -22 -7 -42 -19 -44 -25 -3 -9 40 -12 162 -12 141 0 166 2 166 15 0 11 -11 15 -39 15 -47 0 -86 28 -100 73 -7 21 -8 137 -3 348 l7 315 320 -369 c176 -202 331 -377 344 -388 19 -15 26 -17 33 -7 4 7 8 200 8 428 0 400 1 416 20 448 13 21 36 40 60 49 22 9 40 20 40 25 0 4 -67 8 -150 8 -82 0 -150 -4 -150 -9 0 -5 24 -17 53 -27 82 -30 85 -39 79 -336 l-4 -247 -57 68 c-31 37 -130 154 -221 258 -91 104 -185 214 -211 243 l-45 54 -65 1 c-35 1 -106 0 -157 -2z"/>
<path d="M1360 3565 c0 -128 9 -154 30 -87 20 62 59 121 91 137 16 9 68 19 115 22 l84 6 -1 -234 c0 -129 -4 -318 -7 -421 -8 -213 -9 -217 -86 -225 -30 -4 -46 -10 -46 -19 0 -12 44 -14 245 -14 147 0 245 4 245 9 0 6 -21 16 -46 23 -30 8 -55 23 -68 41 -20 28 -21 40 -24 433 l-4 404 34 0 c87 -1 161 -19 190 -47 32 -30 61 -81 72 -125 3 -16 11 -28 16 -28 6 0 10 50 10 125 l0 125 -425 0 -425 0 0 -125z"/>
<path d="M2290 3565 c0 -128 9 -154 30 -87 20 62 59 121 91 137 16 9 68 19 115 22 l84 6 -1 -234 c0 -129 -4 -318 -7 -421 -8 -213 -9 -217 -86 -225 -30 -4 -46 -10 -46 -19 0 -12 44 -14 245 -14 147 0 245 4 245 9 0 6 -21 16 -46 23 -30 8 -55 23 -68 41 -20 28 -21 40 -24 433 l-4 404 34 0 c54 0 159 -20 189 -36 29 -14 70 -82 83 -136 3 -16 11 -28 16 -28 6 0 10 50 10 125 l0 125 -430 0 -430 0 0 -125z"/>
<path d="M5440 3674 c0 -10 13 -14 39 -14 28 0 49 -7 68 -24 l28 -24 3 -349 c2 -191 0 -372 -3 -400 -8 -68 -30 -95 -84 -102 -23 -3 -43 -10 -44 -16 -2 -12 311 -20 393 -10 54 7 54 7 25 19 -62 26 -60 9 -60 468 0 396 1 420 18 433 17 12 15 14 -25 19 -23 3 -114 7 -200 9 -130 4 -158 2 -158 -9z"/>
<path d="M1127 2478 c7 -52 106 -259 163 -338 11 -15 20 -31 20 -34 0 -9 87 -129 157 -216 70 -87 259 -265 372 -350 142 -107 380 -232 551 -290 103 -35 164 -50 350 -86 114 -22 447 -30 577 -15 93 11 353 69 418 93 175 63 313 132 460 230 186 124 326 250 460 413 81 99 85 105 85 111 0 3 10 20 22 37 68 95 197 340 227 433 l18 54 -1942 0 -1943 0 5 -42z" fill ='#FC3A38'/>
</g>
</svg>